<svg xmlns:inkscape="http://www.inkscape.org/namespaces/inkscape" xmlns:sodipodi="http://sodipodi.sourceforge.net/DTD/sodipodi-0.dtd" xmlns="http://www.w3.org/2000/svg" xmlns:svg="http://www.w3.org/2000/svg" version="1.1" id="svg2" sodipodi:docname="vecteezy_car-pollution-icon-design_10751356.eps" viewBox="448 1391.15 4437.33 2551.04">
  <defs id="defs6"/>
  <sodipodi:namedview id="namedview4" pagecolor="#ffffff" bordercolor="#000000" borderopacity="0.25" inkscape:showpageshadow="2" inkscape:pageopacity="0.0" inkscape:pagecheckerboard="0" inkscape:deskcolor="#d1d1d1"/>
  <g id="g8" inkscape:groupmode="layer" inkscape:label="ink_ext_XXXXXX" transform="matrix(1.3333333,0,0,-1.3333333,0,5333.3333)">
    <g id="g10" transform="scale(0.1)">
      <path d="m 7645.6,25533.2 c -330.76,0.5 -606.63,253 -636.4,582.4 -8,89.6 -12.4,181.6 -12.4,272.8 0,1752.4 1480,3178 3298,3178 1736.4,0 3182,-1307.2 3290.8,-2975.6 23,-352.8 -244.4,-657.4 -597.2,-680.4 -352.8,-23 -657.4,244.4 -680.4,597.2 -64.8,997.6 -949.2,1778.8 -2013.2,1778.8 -1112.8,0 -2018,-851.6 -2018,-1898 0,-54 2.4,-105.6 7.2,-158 31.69,-352 -227.98,-663.1 -580,-694.8 -19.6,-1.6 -39.2,-2.4 -58.4,-2.4" style="fill:#228b22;fill-opacity:1;fill-rule:nonzero;stroke:none" id="path12"/>
      <path d="m 14093.2,21874 c -353.5,-0.4 -640.4,285.8 -640.8,639.2 -0.3,253.2 148.7,482.7 380,585.6 745.4,335.5 1077.7,1211.6 742.2,1957 -237.9,528.6 -762.5,869.7 -1342.2,872.6 -66.2,0.1 -132.4,-4.3 -198,-13.2 -349.7,-51.6 -675,190 -726.6,539.7 -51.6,349.7 190,675 539.7,726.6 4.2,0.6 8.3,1.2 12.5,1.7 123.4,16.9 247.8,25.3 372.4,25.2 1524.3,-3.1 2757.4,-1241.4 2754.3,-2765.7 -2.2,-1086.8 -642,-2071 -1634.3,-2514.3 -81.7,-36 -170,-54.5 -259.2,-54.4" style="fill:#228b22;fill-opacity:1;fill-rule:nonzero;stroke:none" id="path14"/>
      <path d="m 13640,16856.8 c -353.5,-4.9 -643.9,277.7 -648.8,631.2 -4.9,353.5 277.7,643.9 631.2,648.8 991.6,27.2 1768.4,860.8 1768.4,1897.2 0,890 -603.6,1670.4 -1435.6,1855.6 -343.5,83.4 -554.3,429.5 -470.8,773 81.2,334.1 411.8,544.4 748.8,476.2 691.6,-157 1308.2,-546.7 1746.8,-1104 986.1,-1256.8 909,-3044.8 -181.6,-4212 -555.6,-595.1 -1326.5,-942.9 -2140.4,-965.6 l -18,-0.4" style="fill:#228b22;fill-opacity:1;fill-rule:nonzero;stroke:none" id="path16"/>
      <path d="m 6910,18349.6 c -21.6,0 -43.2,0 -65.2,3.2 -962.4,97.2 -1849.6,590.4 -2498.4,1388 -636,782.8 -986.4,1795.2 -986.4,2850.8 0,2347.6 1720,4257.2 3837.2,4257.2 184.48,0.1 368.67,-14.7 550.8,-44 349.84,-50.5 592.5,-375 542.01,-724.9 -50.49,-349.8 -375.01,-592.5 -724.85,-542 -6.81,1 -13.59,2.1 -20.36,3.3 -114.94,18.5 -231.18,27.7 -347.6,27.6 -1410,0 -2557.2,-1335.6 -2557.2,-2977.2 0,-1530.4 1024.8,-2833.2 2333.6,-2965.2 351.7,-35.3 608.18,-349 572.89,-700.7 -32.82,-327 -307.9,-575.9 -636.49,-576.1" style="fill:#228b22;fill-opacity:1;fill-rule:nonzero;stroke:none" id="path18"/>
      <path d="m 11793.2,13698.8 c -1457.8,0.8 -2663.62,1135.3 -2753.2,2590.4 -21.21,353.5 248.13,657.2 601.6,678.4 353.46,21.2 657.2,-248.1 678.4,-601.6 v 0 c 46.5,-816.1 745.7,-1439.9 1561.8,-1393.4 816,46.4 1439.9,745.7 1393.4,1561.7 -13,227.8 -78.4,449.4 -191.2,647.7 -181.5,303.3 -82.7,696.3 220.6,877.8 303.3,181.5 696.3,82.7 877.8,-220.6 5.4,-9 10.6,-18.3 15.6,-27.6 747.1,-1328.6 275.7,-3011.4 -1052.9,-3758.5 -412.2,-231.8 -877,-353.8 -1349.9,-354.3 h -2" style="fill:#228b22;fill-opacity:1;fill-rule:nonzero;stroke:none" id="path20"/>
      <path d="m 8676,15417.2 c -1458.03,1.4 -2638.88,1184.5 -2637.49,2642.5 0.4,428.5 105.11,850.5 305.09,1229.5 165.68,312.3 553.14,431.1 865.4,265.4 312.26,-165.7 431.08,-553.1 265.4,-865.4 v 0 c -103.75,-195.3 -157.6,-413.2 -156.8,-634.4 1.43,-751.1 611.48,-1358.8 1362.59,-1357.4 237.85,0.5 471.43,63.3 677.41,182.2 314.25,161.8 700.2,38.3 862,-276 150.3,-291.8 55.4,-650 -219.6,-829.2 -402.07,-233.8 -858.88,-357.1 -1324,-357.2" style="fill:#228b22;fill-opacity:1;fill-rule:nonzero;stroke:none" id="path22"/>
      <path d="m 30576.4,12040 h -9220 c -353.5,0 -640,286.5 -640,640 0,353.5 286.5,640 640,640 h 9220 c 353.5,0 640,-286.5 640,-640 0,-353.5 -286.5,-640 -640,-640" style="fill:#228b22;fill-opacity:1;fill-rule:nonzero;stroke:none" id="path24"/>
      <path d="m 36000,12040 h -1897.2 c -353.5,0 -640,286.5 -640,640 0,353.5 286.5,640 640,640 H 35360 v 648 c 1.5,1139.7 -921.1,2064.9 -2060.8,2066.4 -1.9,0 -3.7,0 -5.6,0 h -16758 c -353.5,-1.1 -640.9,284.5 -642,638 -1.1,353.5 284.5,640.9 638,642 h 16762 c 1846.4,1.8 3344.6,-1493.6 3346.4,-3340 0,-2.1 0,-4.3 0,-6.4 v -1288 c 0,-353.5 -286.5,-640 -640,-640" style="fill:#228b22;fill-opacity:1;fill-rule:nonzero;stroke:none" id="path26"/>
      <path d="m 17826.4,12088 h -692.8 c -494.5,6.1 -961.4,229.1 -1276.8,610 -132.2,155.9 -239.5,331.3 -318,520 -216.4,526.2 -216.4,1116.6 0,1642.8 128.4,316.8 339.8,593.2 612,800 282.8,212.4 684.2,155.4 896.6,-127.4 212.4,-282.8 155.4,-684.2 -127.4,-896.6 -87.8,-69.6 -155.6,-161 -196.8,-265.2 -85.6,-211.7 -85.6,-448.3 0,-660 27.2,-66.8 64.6,-129 110.8,-184.4 61.6,-72.4 164.4,-160 302,-160 h 692.8 c 353.5,0 640,-286.5 640,-640 0,-353.5 -286.5,-640 -640,-640 l -2.4,0.8" style="fill:#228b22;fill-opacity:1;fill-rule:nonzero;stroke:none" id="path28"/>
      <path d="m 16531.6,16034.4 c -353.5,0.9 -639.3,288.1 -638.4,641.6 0.4,163.1 63,319.9 175.2,438.4 l 2691.6,2826.8 c 120.6,127.4 288.2,199.7 463.6,200 H 28164 c 170.6,-0.2 334.1,-68.3 454.4,-189.2 l 2802.8,-2825.6 c 252.5,-247.3 256.7,-652.5 9.4,-905.1 -247.3,-252.5 -652.6,-256.7 -905.1,-9.3 -4.3,4.2 -8.5,8.5 -12.7,12.8 L 27897.2,18860 h -8400 l -2502,-2626.8 c -120.6,-127.3 -288.3,-199.2 -463.6,-198.8" style="fill:#228b22;fill-opacity:1;fill-rule:nonzero;stroke:none" id="path30"/>
      <path d="m 22676.8,19500 h 1280 v -6818.8 h -1280 V 19500" style="fill:#228b22;fill-opacity:1;fill-rule:nonzero;stroke:none" id="path32"/>
      <path d="m 26794.4,14400 h -1607.2 c -353.5,0 -640,286.5 -640,640 0,353.5 286.5,640 640,640 h 1607.2 c 353.5,0 640,-286.5 640,-640 0,-353.5 -286.5,-640 -640,-640" style="fill:#228b22;fill-opacity:1;fill-rule:nonzero;stroke:none" id="path34"/>
      <path d="m 19593.2,13974.8 c -624.5,0 -1130.8,-506.3 -1130.8,-1130.8 0,-624.5 506.3,-1130.8 1130.8,-1130.8 624.5,0 1130.8,506.3 1130.8,1130.8 0,0.1 0,0.3 0,0.4 -0.9,624.1 -506.7,1129.7 -1130.8,1130.4 z m 0,-3541.2 c -1331.4,0 -2410.8,1079.3 -2410.8,2410.8 0,1331.4 1079.4,2410.8 2410.8,2410.8 1331.4,0 2410.8,-1079.4 2410.8,-2410.8 -1.3,-1330.9 -1079.9,-2409.5 -2410.8,-2410.8" style="fill:#228b22;fill-opacity:1;fill-rule:nonzero;stroke:none" id="path36"/>
      <path d="m 32339.6,13974.8 c -624.5,0.2 -1131,-505.9 -1131.2,-1130.4 -0.2,-624.5 505.9,-1131 1130.4,-1131.2 624.5,-0.2 1131,505.9 1131.2,1130.4 0,0.3 0,0.5 0,0.8 -0.9,623.9 -506.5,1129.5 -1130.4,1130.4 z m 0,-3541.2 c -1331.4,-0.2 -2411,1078.9 -2411.2,2410.4 -0.2,1331.4 1079,2411 2410.4,2411.2 1331.4,0.2 2411,-1079 2411.2,-2410.4 0,-0.1 0,-0.3 0,-0.4 -1.5,-1330.7 -1079.7,-2409 -2410.4,-2410.8" style="fill:#228b22;fill-opacity:1;fill-rule:nonzero;stroke:none" id="path38"/>
      <path d="m 16534.8,14509.2 c -353.5,0 -640,286.5 -640,640 v 1525.2 c -0.9,353.5 284.9,640.7 638.4,641.6 353.5,0.9 640.7,-284.9 641.6,-638.4 v -1528.4 c 0,-353.5 -286.5,-640 -640,-640" style="fill:#228b22;fill-opacity:1;fill-rule:nonzero;stroke:none" id="path40"/>
      <path d="m 16029.6,13288 h -1240 c -353.5,0 -640,286.5 -640,640 0,353.5 286.5,640 640,640 h 1240 c 353.5,0 640,-286.5 640,-640 0,-353.5 -286.5,-640 -640,-640" style="fill:#228b22;fill-opacity:1;fill-rule:nonzero;stroke:none" id="path42"/>
    </g>
  </g>
</svg>